<svg width="616" height="435" viewBox="0 0 616 435" fill="none" xmlns="http://www.w3.org/2000/svg">
<path d="M265.621 164.653L263.983 164.007C264.353 161.699 264.366 159.382 264.047 157.135L265.941 156.311C268.77 155.082 270.067 151.791 268.837 148.961C267.608 146.132 264.317 144.835 261.487 146.065L259.87 146.768C258.535 144.918 256.923 143.262 255.06 141.863C255.06 141.863 255.059 141.862 255.058 141.862L255.815 139.941C256.946 137.07 255.536 133.826 252.666 132.695C249.796 131.564 246.552 132.974 245.421 135.844L244.775 137.483C242.467 137.113 240.15 137.1 237.903 137.418L237.08 135.524C235.85 132.695 232.559 131.398 229.729 132.628C226.9 133.858 225.603 137.148 226.833 139.978L227.536 141.595C225.685 142.93 224.029 144.542 222.63 146.405C222.629 146.405 222.629 146.406 222.629 146.406L220.709 145.649C217.838 144.518 214.595 145.928 213.463 148.798C212.332 151.669 213.742 154.913 216.612 156.044L218.25 156.689C217.879 158.998 217.866 161.315 218.185 163.562L216.293 164.384C213.463 165.614 212.166 168.905 213.396 171.734C214.626 174.564 217.916 175.861 220.746 174.631L222.358 173.931C222.358 173.931 222.358 173.931 222.359 173.932C223.695 175.777 225.313 177.435 227.173 178.839L226.418 180.755C225.286 183.626 226.696 186.87 229.567 188.001C232.437 189.132 235.681 187.722 236.812 184.851L237.457 183.214C239.766 183.585 242.083 183.598 244.33 183.279L245.153 185.171C246.383 188.001 249.673 189.298 252.503 188.068C255.332 186.838 256.629 183.548 255.4 180.718L254.699 179.106H254.699C256.545 177.769 258.203 176.152 259.607 174.291L261.524 175.047C264.394 176.178 267.638 174.768 268.769 171.898C269.901 169.028 268.491 165.784 265.621 164.653ZM256.592 166.447C253.224 174.992 243.563 179.191 235.018 175.824C226.474 172.457 222.275 162.795 225.642 154.251C229.011 145.702 238.671 141.507 247.215 144.874C255.759 148.242 259.961 157.898 256.592 166.447Z" fill="#E1DEFF"/>
<path d="M231.337 156.495C229.208 161.896 231.861 168.001 237.263 170.129C242.664 172.258 248.774 169.607 250.902 164.205C253.031 158.803 250.375 152.692 244.973 150.564C239.572 148.435 233.465 151.093 231.337 156.495Z" fill="#E1DEFF"/>
<path d="M215.508 115.052L214.263 115.349C213.524 113.818 212.568 112.432 211.443 111.224L212.23 109.946C213.406 108.036 212.811 105.534 210.9 104.359C208.99 103.183 206.489 103.778 205.313 105.689L204.641 106.78C203.075 106.232 201.425 105.916 199.733 105.856C199.733 105.856 199.732 105.856 199.732 105.856L199.384 104.396C198.865 102.213 196.675 100.866 194.493 101.385C192.311 101.905 190.963 104.094 191.482 106.276L191.779 107.522C190.249 108.261 188.862 109.216 187.654 110.341L186.376 109.554C184.466 108.379 181.964 108.974 180.789 110.884C179.613 112.794 180.208 115.296 182.119 116.472L183.21 117.144C182.662 118.709 182.345 120.36 182.285 122.052C182.285 122.053 182.285 122.053 182.285 122.053L180.826 122.401C178.644 122.92 177.296 125.11 177.815 127.292C178.335 129.474 180.525 130.822 182.706 130.302L183.951 130.006C184.69 131.536 185.646 132.923 186.771 134.131L185.985 135.409C184.809 137.319 185.404 139.82 187.315 140.996C189.225 142.172 191.726 141.576 192.902 139.666L193.572 138.578C193.572 138.578 193.573 138.579 193.573 138.579C195.137 139.123 196.791 139.439 198.484 139.503L198.831 140.959C199.35 143.141 201.54 144.489 203.722 143.969C205.904 143.45 207.251 141.26 206.732 139.078L206.436 137.834C207.966 137.094 209.353 136.138 210.561 135.014L211.838 135.8C213.748 136.976 216.25 136.38 217.426 134.47C218.601 132.56 218.006 130.058 216.096 128.883L215.007 128.213C215.007 128.213 215.007 128.213 215.007 128.213C215.551 126.648 215.868 124.994 215.931 123.3L217.388 122.954C219.57 122.434 220.917 120.245 220.398 118.063C219.88 115.881 217.691 114.533 215.508 115.052ZM210.871 119.878C212.417 126.373 208.402 132.895 201.907 134.441C195.413 135.987 188.89 131.972 187.344 125.478C185.797 118.979 189.813 112.46 196.307 110.914C202.803 109.369 209.324 113.379 210.871 119.878Z" fill="#E1DEFF"/>
<path d="M191.673 124.447C192.651 128.553 196.772 131.09 200.877 130.113C204.983 129.136 207.524 125.014 206.546 120.908C205.569 116.802 201.443 114.263 197.337 115.24C193.232 116.217 190.696 120.341 191.673 124.447Z" fill="#E1DEFF"/>
<path d="M511.896 155.584L510.291 156.014C509.277 154.055 507.987 152.29 506.485 150.764L507.46 149.078C508.916 146.558 508.054 143.334 505.534 141.878C503.014 140.422 499.791 141.284 498.334 143.804L497.502 145.244C495.452 144.59 493.3 144.238 491.103 144.222C491.102 144.222 491.101 144.222 491.101 144.222L490.597 142.34C489.845 139.528 486.956 137.858 484.145 138.611C481.333 139.362 479.663 142.252 480.415 145.063L480.845 146.669C478.886 147.682 477.121 148.972 475.595 150.474L473.909 149.499C471.389 148.043 468.165 148.905 466.709 151.425C465.253 153.945 466.115 157.168 468.635 158.625L470.075 159.457C469.42 161.508 469.069 163.66 469.052 165.858C469.052 165.858 469.052 165.859 469.052 165.859L467.171 166.363C464.359 167.114 462.689 170.004 463.442 172.815C464.193 175.627 467.083 177.297 469.894 176.545L471.498 176.115C472.512 178.074 473.802 179.839 475.304 181.365L474.33 183.051C472.874 185.571 473.736 188.795 476.256 190.251C478.776 191.707 481.999 190.845 483.456 188.325L484.285 186.89C484.286 186.89 484.286 186.89 484.287 186.89C486.336 187.54 488.492 187.891 490.691 187.913L491.193 189.789C491.945 192.601 494.834 194.271 497.646 193.518C500.458 192.766 502.128 189.877 501.375 187.066L500.946 185.462C502.905 184.448 504.67 183.158 506.196 181.655L507.882 182.629C510.402 184.086 513.625 183.223 515.081 180.703C516.538 178.184 515.675 174.96 513.156 173.504L511.72 172.674C511.72 172.674 511.72 172.674 511.72 172.673C512.37 170.624 512.72 168.467 512.742 166.268L514.619 165.766C517.431 165.014 519.101 162.125 518.348 159.313C517.596 156.502 514.707 154.832 511.896 155.584ZM506.053 162.011C508.292 170.38 503.319 178.985 494.949 181.224C486.58 183.462 477.975 178.489 475.736 170.12C473.496 161.745 478.471 153.145 486.84 150.907C495.21 148.668 503.813 153.636 506.053 162.011Z" fill="#E1DEFF"/>
<path d="M481.314 168.628C482.73 173.919 488.166 177.061 493.457 175.646C498.749 174.231 501.896 168.793 500.48 163.502C499.065 158.21 493.622 155.065 488.331 156.48C483.04 157.895 479.899 163.337 481.314 168.628Z" fill="#E1DEFF"/>
<path d="M585.073 353.977H35.1998C25.2426 354.39 11.6595 357.393 11.2628 360.038C10.8124 363.041 25.911 364.169 37.3373 364.319C62.362 364.648 87.3872 364.978 112.412 365.307C114.707 365.337 117.109 365.375 119.076 365.688C124.523 366.552 122.757 368.904 117.758 369.939C112.759 370.974 106.067 371.186 100.078 371.753C94.09 372.32 87.9707 373.596 88.3629 375.264C88.8959 377.534 99.9476 378.337 108.588 378.491C144.596 379.133 180.8 379.013 216.736 378.136C231.882 377.766 249.094 377.429 260.298 380.132C263.531 380.912 266.043 381.909 269.742 382.531C298.352 387.342 346 384.164 376.85 384.528C409.404 384.913 442.633 385.277 473.966 382.926C482.703 382.27 492.206 381.154 495.208 378.901C498.398 376.507 492.878 373.994 488.644 371.714C484.411 369.434 481.905 366.323 489.192 364.658C493.061 363.774 498.559 363.612 503.685 363.571C529.279 363.362 556.205 365.069 579.735 362.416C592.379 360.99 591.563 357.164 585.073 353.977Z" fill="#EAE8FF"/>
<path d="M113.247 318.453H10.6211V272.119L113.247 150.13H162.347V274.747H187.796V318.453H162.347V356.35H113.247V318.453ZM113.247 274.747V210.936L59.021 274.747H113.247Z" fill="#024FA0"/>
<path d="M187.796 274.747H177.235V318.452H187.796V274.747Z" fill="#024FA0"/>
<path d="M162.347 150.13H151.786V274.746H162.347V150.13Z" fill="#024FA0"/>
<path d="M59.0211 274.747L113.247 212.438V200.01L48.46 274.747H59.0211Z" fill="#024FA0"/>
<path d="M162.347 318.453H151.786V356.35H162.347V318.453Z" fill="#024FA0"/>
<path d="M529.095 318.453H426.469V272.119L529.095 150.13H578.195V274.747H603.644V318.453H578.195V356.35H529.095V318.453H529.095ZM529.095 274.747V210.936L474.869 274.747H529.095Z" fill="#50B846"/>
<path d="M603.644 274.747H593.083V318.452H603.644V274.747Z" fill="#50B846"/>
<path d="M578.194 150.13H567.633V274.746H578.194V150.13Z" fill="#50B846"/>
<path d="M474.869 274.747L529.095 212.438V200.01L464.308 274.747H474.869Z" fill="#50B846"/>
<path d="M578.194 318.453H567.633V356.35H578.194V318.453Z" fill="#50B846"/>
<path d="M227.212 255.77C227.212 215.646 234.434 187.569 248.882 171.536C263.329 155.506 285.334 147.49 314.902 147.49C329.107 147.49 340.77 149.242 349.891 152.745C359.01 156.251 366.45 160.809 372.209 166.425C377.969 172.04 382.504 177.943 385.816 184.135C389.128 190.327 391.791 197.551 393.807 205.806C397.742 221.55 399.711 237.965 399.711 255.05C399.711 293.352 393.232 321.382 380.272 339.14C367.313 356.9 344.995 365.779 313.317 365.779C295.557 365.779 281.207 362.946 270.264 357.283C259.32 351.62 250.344 343.315 243.338 332.373C238.248 324.597 234.289 313.967 231.458 300.479C228.627 286.994 227.212 272.091 227.212 255.77ZM285.384 255.915C285.384 282.793 287.759 301.152 292.511 310.99C297.263 320.831 304.15 325.749 313.174 325.749C319.125 325.749 324.283 323.661 328.653 319.486C333.019 315.309 336.235 308.711 338.3 299.687C340.363 290.665 341.396 276.601 341.396 257.498C341.396 229.47 339.02 210.629 334.268 200.982C329.516 191.335 322.389 186.511 312.886 186.511C303.189 186.511 296.183 191.431 291.863 201.269C287.544 211.111 285.384 229.326 285.384 255.915Z" fill="#F2721E"/>
<path d="M306.495 187.338C304.504 186.793 302.383 186.511 300.124 186.511C290.427 186.511 283.421 191.432 279.101 201.27C274.782 211.111 272.622 229.325 272.622 255.914C272.622 282.793 274.997 301.152 279.749 310.99C284.501 320.831 291.388 325.749 300.412 325.749C302.676 325.749 304.824 325.445 306.858 324.84C300.868 323.007 296.085 318.392 292.51 310.99C287.759 301.152 285.383 282.793 285.383 255.914C285.383 229.325 287.543 211.111 291.862 201.269C295.166 193.746 300.047 189.108 306.495 187.338Z" fill="#F2721E"/>
<path d="M393.807 205.806C391.791 197.55 389.128 190.327 385.815 184.135C382.504 177.944 377.968 172.04 372.208 166.425C366.449 160.809 359.009 156.251 349.89 152.745C340.769 149.243 329.106 147.49 314.901 147.49C312.751 147.49 310.646 147.537 308.576 147.622C319.904 148.082 329.427 149.787 337.129 152.745C346.248 156.251 353.688 160.809 359.447 166.425C365.207 172.04 369.742 177.944 373.054 184.135C376.366 190.327 379.03 197.551 381.046 205.806C384.981 221.55 386.95 237.965 386.95 255.05C386.95 293.352 380.47 321.382 367.511 339.141C355.44 355.683 335.244 364.516 306.933 365.65C309.01 365.735 311.137 365.779 313.317 365.779C344.994 365.779 367.313 356.901 380.272 339.141C393.231 321.382 399.71 293.352 399.71 255.05C399.711 237.965 397.742 221.55 393.807 205.806Z" fill="#F2721E"/>
<path d="M316.691 124.725C316.754 130.628 315.878 135.965 314.018 141.259C313.672 142.254 313.287 143.248 312.869 144.242L313.351 147.442H304.107L310.074 143.882C310.21 143.032 310.322 142.153 310.42 141.26C311.048 135.212 310.78 128.53 310.6 125.518C310.537 124.428 310.707 123.342 311.096 122.319C312.703 118.13 317.022 106.51 318.415 99.3235H328.562C330.3 110.823 325.615 115.781 316.691 124.725Z" fill="#F9CBCB"/>
<path d="M324.067 116.784C322.124 119.249 319.641 121.771 316.691 124.725C316.754 130.629 316.348 137.332 314.489 142.625L309.867 142.385C310.495 136.337 309.434 126.234 310.379 122.41C311.455 118.055 317.022 106.509 318.414 99.3232H328.561C329.725 107.024 328.011 111.793 324.067 116.784Z" fill="#1F1C80"/>
<path d="M324.072 116.765L324.067 116.784C322.124 119.249 319.641 121.771 316.69 124.725C316.753 130.629 316.348 137.332 314.488 142.625L313.118 142.554C315.047 137.569 315.583 131.038 315.363 124.381C325.442 116.172 318.751 113.215 321.885 107.265L324.072 116.765Z" fill="#13106B"/>
<path d="M310.074 143.882C307.85 145.021 303.97 144.705 303.742 147.441H313.351C313.459 146.153 313.396 144.945 313.019 143.882C312.095 144.046 311.113 144.044 310.074 143.882Z" fill="#1F1C80"/>
<path d="M337.262 143.461C337.662 144.328 338.039 145.132 338.427 145.976C335.846 146.592 333.266 147.21 330.685 147.829C332.247 146.532 333.819 145.26 335.374 143.947C334.778 142.74 334.054 141.037 333.408 139.944C330.822 135.567 327.896 131.691 324.935 127.605C324.231 126.633 323.776 125.694 323.559 124.426C322.179 116.379 322.353 108.079 320.903 100.016C323.194 99.6594 325.48 99.3146 327.769 98.9648C334.148 108.93 332.798 114.244 330.124 124.94C333.299 129.238 335.05 134.093 336.324 139.285C336.585 140.355 337.032 142.269 337.262 143.461Z" fill="#F9CBCB"/>
<path d="M323.567 124.436C323.791 125.706 324.158 126.525 324.956 127.642C328.312 132.339 330.942 137.684 333.895 142.667C335.171 142.377 336.427 142.074 337.694 141.779C336.228 135.965 333.767 129.811 330.124 124.944C332.796 114.242 334.149 108.938 327.773 98.9713C327.772 98.9681 327.77 98.9658 327.768 98.9631C325.166 99.3607 322.564 99.7583 319.961 100.155C319.998 100.353 320.034 100.55 320.07 100.748C320.071 100.752 320.07 100.761 320.071 100.766C321.458 108.623 322.181 116.586 323.567 124.436Z" fill="#1F1C80"/>
<path d="M321.542 101.074C322.378 102.25 321.59 104.606 322.507 105.888C324.88 109.206 328.072 106.746 330.127 108.084C333.621 110.358 329.74 120.728 328.971 123.535C328.948 123.62 328.408 125.488 328.053 125.449C329.666 125.643 329.094 124.506 331.154 128.001C332.083 129.577 336.892 138.781 337.073 141.701C337.485 142.101 337.458 141.7 337.697 141.783C336.225 135.96 333.768 129.814 330.125 124.944C332.796 114.243 334.151 108.938 327.772 98.9717C325.236 99.5525 322.066 99.163 319.59 99.7376C319.298 99.8053 320.998 100.308 321.542 101.074Z" fill="#13106B"/>
<path d="M334.97 143.167C332.798 144.688 329.787 145.141 329.588 148.091C332.584 147.374 335.578 146.655 338.574 145.94C338.318 144.724 337.794 143.702 337.108 142.664C336.448 143.232 335.823 143.355 334.97 143.167Z" fill="#1F1C80"/>
<path d="M304.034 75.5926C304.087 75.6797 304.339 76.206 304.391 76.3802C305.001 76.0142 305.541 75.5507 306.123 75.1386C305.955 74.9752 305.625 74.5357 305.632 74.3294C305.656 73.6493 306.096 72.6912 305.586 72.2087C305.076 71.7263 304.837 72.8753 304.8 73.2039C304.001 72.3044 304.004 72.0214 303.322 70.839C301.507 67.6947 303.463 74.6575 304.034 75.5926Z" fill="#F9CBCB"/>
<path d="M303.979 76.0437C305.201 79.0539 306.544 83.0864 309.609 84.4697C313.095 86.0429 316.054 84.3135 319.538 84.332C320.072 81.7185 320.692 79.2015 321.25 76.6232C317.435 77.1557 314.518 79.2327 311.196 81.0208C309.186 79.1013 307.726 76.8624 306.213 74.5476C305.464 75.0436 304.717 75.5057 303.979 76.0437Z" fill="#50B846"/>
<path d="M304.734 75.5671C305.955 78.6365 308.578 83.4556 309.827 84.3208C310.828 85.0144 316.285 84.1389 319.531 84.2941C319.546 84.2404 319.528 84.286 319.538 84.3302C316.052 84.3171 311.073 86.214 309.441 85.2708C307.395 84.0883 305.203 79.0513 303.979 76.0428C304.211 75.8266 304.481 75.6912 304.734 75.5671Z" fill="#50B846"/>
<path d="M315.6 86.9165L318.414 99.3334H328.562C328.562 99.3334 330.241 87.3967 327.666 81.1438C326.506 78.3267 322.7 77.1104 322.461 77.035L322.45 77.0305L319.62 77.1934L315.6 86.9165Z" fill="#F9CBCB"/>
<path d="M315.717 87.4258L318.089 97.8935C318.28 98.737 319.02 99.335 319.872 99.335C321.343 100.012 323.436 99.78 325.674 99.335C327.347 99.335 328.737 98.0343 328.875 96.3424C329.196 92.3903 329.43 85.4315 327.663 81.1427C326.755 78.9398 324.226 77.7136 323.057 77.2497C322.688 77.1035 322.297 77.0312 321.901 77.0312L319.712 77.0362C319.377 77.0362 315.648 86.3991 315.648 86.3991C315.618 86.743 315.641 87.0892 315.717 87.4258Z" fill="white"/>
<path d="M316.028 99.9832H326.796V98.3851H316.028V99.9832Z" fill="#182F57"/>
<path d="M320.27 105.487C320.133 105.991 319.729 106.377 319.227 106.52C318.604 106.703 317.947 106.723 317.256 106.624C317.226 106.619 317.202 106.614 317.173 106.609C316.667 106.53 316.141 106.382 315.605 106.189L315.6 90.7078C315.6 90.7078 315.534 87.8623 315.6 86.9168C315.893 82.7439 315.478 77.8355 319.445 77.0525C319.637 77.0146 319.719 77.0308 319.719 77.0308C316.692 89.8444 321.706 100.169 320.27 105.487Z" fill="#50B846"/>
<path d="M331.566 107.016C329.437 107.48 327.054 107.268 325.223 107.008C323.683 106.79 322.589 105.395 322.702 103.821C323.34 95.0121 320.806 86.3826 322.451 77.0305L322.461 77.0355C322.699 77.1099 326.524 78.3186 327.665 81.1429C329.812 86.4543 330.65 98.2178 332.288 105.862C332.398 106.382 332.078 106.905 331.566 107.016Z" fill="#50B846"/>
<path d="M329.912 99.7552C328.376 100.053 326.777 100.066 325.104 99.7552V99.02C326.555 99.2443 328.164 99.2353 329.912 99.02V99.7552Z" fill="#7549EB"/>
<path d="M331.382 100.55C331.382 100.55 331.558 99.9786 331.877 99.3896L329.933 98.6206C329.933 98.6206 329.779 99.5945 329.525 99.7584C329.109 100.027 328.193 100.345 327.825 100.953C327.456 101.56 329.026 101.056 329.026 101.056C329.026 101.056 328.772 102.598 327.936 103.608C327.099 104.617 330.052 105.587 331.382 100.55Z" fill="#F9CBCB"/>
<path d="M329.636 99.0696L332.002 100.08C333.214 97.8465 335.984 91.7412 336.17 89.3326C336.403 86.288 326.42 79.3311 326.42 79.3311L323.907 83.9222C326.524 87.2646 330.97 89.6927 330.97 89.6927L329.636 99.0696Z" fill="#50B846"/>
<path d="M324.066 83.9021C328.443 87.6692 331.511 89.4875 331.498 89.1897L330.285 99.3469L329.636 99.0698L330.97 89.6924C328.581 88.2884 326.279 86.3635 324.066 83.9021Z" fill="#50B846"/>
<path d="M321.364 75.0561C321.364 75.0561 323.787 75.0479 324.368 72.2291C324.949 69.4102 322.638 68.4078 321.121 68.4272C319.014 68.4543 317.929 66.9099 317.929 66.9099C317.929 66.9099 316.583 68.7454 317.358 70.3561C318.029 71.7525 321.364 75.0561 321.364 75.0561Z" fill="#1F1C80"/>
<path d="M319.495 73.7245L319.549 74.5382L319.692 76.7212L319.714 77.0538C319.757 78.786 322.318 78.0688 322.45 77.0322L322.029 75.3086L321.72 74.0459L321.612 73.6027L321.428 72.8503L319.495 73.7245Z" fill="#F9CBCB"/>
<path d="M319.548 74.5378L319.691 76.7208C320.336 76.5881 321.313 76.2876 321.809 75.6156C321.886 75.5122 321.959 75.4098 322.029 75.3078L321.72 74.045L321.612 73.6018L319.548 74.5378Z" fill="#F0B4B4"/>
<path d="M318.57 70.0201C318.154 69.7629 317.615 70.0662 317.591 70.5603C317.503 72.3376 317.584 75.2233 318.975 75.694C321.01 76.3822 322.463 73.6942 322.463 73.6942C322.463 73.6942 323.335 72.4495 322.721 72.0235C322.108 71.5975 321.526 72.6454 321.526 72.6454C321.425 70.6705 319.786 70.7729 318.57 70.0201Z" fill="#F9CBCB"/>
<path d="M262.094 67.0608C262.062 69.5543 262.054 72.0532 262.074 74.5471C263.123 74.5119 264.993 74.4501 265.835 74.4221C266.677 74.3941 265.966 74.4181 266.717 74.3928C267.469 74.3675 267.317 74.3734 268.534 74.3323C269.751 74.2917 266.67 74.3955 269.87 74.2876C273.071 74.1802 278.67 73.988 284.942 73.756C291.214 73.524 302.842 73.0334 310.112 72.7726C310.353 71.6204 310.355 70.5084 310.12 69.353C302.85 68.991 291.231 68.5032 284.954 68.204C278.677 67.9043 273.037 67.6231 269.83 67.4598C266.624 67.2964 269.708 67.4525 268.49 67.3902C267.273 67.328 267.425 67.3352 266.675 67.2968C265.925 67.2585 266.625 67.2941 265.792 67.2512C264.96 67.2088 263.128 67.1145 262.094 67.0608Z" fill="#FDB0FF"/>
<path d="M266.72 73.4265C267.471 73.4017 267.32 73.4075 268.536 73.3665C269.753 73.3254 266.673 73.4297 269.873 73.3218C273.073 73.2139 278.673 73.0199 284.944 72.7874C291.216 72.555 302.843 72.0604 310.114 71.7991C310.351 72.115 310.35 72.4395 310.112 72.7721C302.841 73.033 291.214 73.5235 284.942 73.756C278.67 73.9888 273.071 74.1793 269.87 74.2876C266.669 74.3959 269.75 74.2912 268.534 74.3323C267.317 74.3734 267.469 74.3675 266.717 74.3928C265.966 74.418 266.677 74.3941 265.834 74.4221C264.992 74.4501 263.122 74.5119 262.074 74.5471C262.048 74.2258 262.049 73.904 262.076 73.5809C263.126 73.5461 264.995 73.4838 265.837 73.4558C266.679 73.4279 265.968 73.4518 266.72 73.4265Z" fill="#F3A4F5"/>
<path d="M311.014 68.5144C311.434 68.5171 311.744 68.7721 311.751 69.2699C311.764 70.3305 311.761 71.6971 311.742 72.7572C311.733 73.2546 311.422 73.5055 311.003 73.5023C310.582 73.4996 310.273 73.2446 310.266 72.7468C310.252 71.6862 310.256 70.3201 310.275 69.26C310.283 68.7622 310.594 68.5113 311.014 68.5144Z" fill="#C727CC"/>
<path d="M261.209 70.7966C261.207 71.6441 261.194 74.4368 262.441 74.4459C263.689 74.4553 263.691 71.6653 263.693 70.8178C263.695 69.9702 263.708 67.1775 262.461 67.1685C261.213 67.1595 261.21 69.949 261.209 70.7966Z" fill="white"/>
<path d="M260.863 70.7935C260.865 69.6986 260.925 66.812 262.462 66.8238C263.999 66.8355 264.042 69.727 264.04 70.8215C264.037 71.9159 263.978 74.8029 262.441 74.7912C260.904 74.779 260.861 71.8879 260.863 70.7935ZM261.556 70.7998C261.555 71.4041 261.515 74.0786 262.443 74.0854C263.371 74.0921 263.346 71.4181 263.347 70.8143C263.349 70.2104 263.388 67.535 262.46 67.5287C261.533 67.5228 261.557 70.1955 261.556 70.7998Z" fill="#C727CC"/>
<path d="M265.948 74.4182C266.183 74.4106 266.419 74.4029 266.654 74.3948C266.92 72.0055 266.905 69.6795 266.612 67.2934C266.375 67.2817 266.139 67.269 265.903 67.2568C266.21 69.6646 266.226 72.0073 265.948 74.4182Z" fill="white"/>
<path d="M268.418 74.3365C268.653 74.3288 268.889 74.3207 269.124 74.313C269.374 71.9951 269.36 69.7359 269.082 67.4215C268.846 67.4098 268.61 67.3967 268.374 67.3845C268.664 69.7205 268.679 71.9969 268.418 74.3365Z" fill="white"/>
<path d="M284.506 67.9739C284.228 69.9569 284.223 71.9932 284.49 73.9799C290.078 73.7538 302.952 73.1793 306.82 73.0281C310.688 72.8769 307.158 73.015 308.598 72.9591C310.038 72.9026 309.17 72.9369 310.3 72.8923C310.232 71.6778 310.235 70.4502 310.308 69.2366C309.179 69.1771 310.046 69.2222 308.606 69.1464C307.167 69.0706 310.696 69.2556 306.83 69.053C302.964 68.8499 290.091 68.2568 284.506 67.9739Z" fill="#FB78FF"/>
<path d="M310.068 71.7367C310.071 70.8986 310.072 70.061 310.074 69.2229C310.138 69.2265 310.202 69.2292 310.266 69.2333C310.263 70.4536 310.26 71.6735 310.257 72.8939C301.611 73.2323 292.969 73.6421 284.323 73.9869C284.325 73.6006 284.325 73.2143 284.326 72.828C292.908 72.4863 301.487 72.072 310.068 71.7367Z" fill="#EC67F0"/>
<path d="M284.62 67.3689C284.916 67.3703 285.196 67.5156 285.197 67.8861C285.205 69.9788 285.198 72.2079 285.18 74.3001C285.177 74.6707 284.896 74.8124 284.6 74.8106C284.304 74.8088 284.024 74.6634 284.024 74.2934C284.016 72.2011 284.022 69.9725 284.04 67.8798C284.043 67.5093 284.324 67.3671 284.62 67.3689Z" fill="white"/>
<path d="M307.785 69.1028C307.783 70.3989 307.779 71.6947 307.775 72.9908C308.097 72.9786 308.419 72.9656 308.74 72.9534C308.743 71.6865 308.746 70.4202 308.749 69.1538C308.428 69.1366 308.106 69.1195 307.785 69.1028Z" fill="white"/>
<path d="M365.314 377.029H385.302L387.047 367.555L387.242 366.502L389.064 356.599L389.259 355.545L391.084 345.64L391.279 344.586L393.103 334.681L393.298 333.627L395.123 323.724L395.315 322.671L397.024 313.394L397.219 312.341L399.16 301.806L399.354 300.753L401.488 289.169H412.445L414.579 300.753L414.774 301.806L416.715 312.341L416.91 313.394L418.618 322.671L418.811 323.724L420.635 333.627L420.83 334.681L422.654 344.586L422.849 345.64L424.674 355.545L424.869 356.599L426.691 366.502L426.886 367.555L428.632 377.029H448.619L446.847 367.555L446.65 366.502L444.798 356.599L444.601 355.545L442.747 345.64L442.55 344.586L440.699 334.681L440.501 333.627L438.648 323.724L438.453 322.671L436.718 313.394L436.52 312.341L434.548 301.806L434.353 300.753L432.186 289.169H432.814V287.524H381.238V289.169H381.747L379.58 300.753L379.385 301.806L377.413 312.341L377.215 313.394L375.48 322.671L375.286 323.724L373.432 333.627L373.235 334.681L371.384 344.586L371.186 345.64L369.332 355.545L369.135 356.599L367.284 366.502L367.086 367.555L365.314 377.029ZM427.958 367.555H445.779L447.354 375.976H429.509L427.958 367.555ZM425.939 356.599H443.728L445.581 366.502H427.763L425.939 356.599ZM423.919 345.64H441.679L443.533 355.546H425.744L423.919 345.64ZM421.899 334.681H439.628L441.482 344.587H423.727L421.899 334.681ZM419.882 323.725H437.58L439.43 333.628H421.707L419.882 323.725ZM417.979 313.395H435.647L437.382 322.672H419.687L417.979 313.395ZM415.843 301.807H433.479L435.449 312.342H417.784L415.843 301.807ZM413.516 289.17H431.116L433.283 300.754H415.649L413.516 289.17ZM398.286 300.754H380.652L382.819 289.17H400.419L398.286 300.754ZM396.15 312.342H378.485L380.455 301.807H398.091L396.15 312.342ZM394.247 322.672H376.552L378.287 313.395H395.956L394.247 322.672ZM392.227 333.628H374.504L376.355 323.725H394.052L392.227 333.628ZM390.207 344.587H372.452L374.306 334.681H392.034L390.207 344.587ZM388.19 355.546H370.401L372.255 345.64H390.015L388.19 355.546ZM386.171 366.502H368.353L370.206 356.599H387.995L386.171 366.502ZM384.425 375.976H366.581L368.155 367.555H385.976L384.425 375.976Z" fill="#1F1C80"/>
<path d="M397.932 233.798C397.932 233.798 392.483 230.101 391.346 228.586C389.975 226.76 389.063 221.384 389.063 221.384C387.732 220.715 386.98 219.332 387.39 217.909C387.663 216.959 388.718 219.421 389.506 219.587C389.506 219.587 389.791 217.479 390.243 218.151C390.76 218.919 390.518 220.812 390.518 220.812L393.844 226.405L400.405 230.713L397.932 233.798Z" fill="#F7C1CE"/>
<path d="M395.426 232.587L396.842 227.689L400.869 229.731C400.869 229.731 401.341 232.365 401.326 232.587C401.311 232.808 400.499 234.489 400.499 234.489L395.426 232.587Z" fill="#50B846"/>
<path d="M399.291 220.618C398.557 221.361 396.637 223.575 397.012 225.34C397.388 227.105 399.659 227.515 399.659 227.515L402.187 223.059L399.291 220.618Z" fill="#F7C1CE"/>
<path d="M419.933 273.592C419.819 272.408 419.438 270.063 419.156 269.98C418.883 269.899 414.52 271.695 412.061 272.158C409.371 272.664 405.677 273.795 403.74 271.587C399.571 266.836 397.455 260.29 396.4 254.134C398.247 253.116 400.093 252.132 401.951 251.147C410.065 257.104 406.092 260.572 407.766 268.5C409.709 268.685 411.395 268.767 413.406 268.563C415.174 268.384 417.314 268.156 419.155 268.07C419.66 267.82 420.006 267.949 420.526 268.029C420.89 269.511 421.759 272.83 419.933 273.592Z" fill="#F7C1CE"/>
<path d="M419.357 267.937C420.092 267.77 420.837 267.873 421.55 268.018C421.674 268.043 421.665 268.084 421.659 268.19C421.64 268.547 421.583 268.964 421.545 269.33C421.537 269.406 421.539 269.409 421.457 269.454C421.229 269.579 421.221 269.799 421.289 270.124C421.485 271.067 421.227 273.096 420.971 273.807C420.086 276.272 419.702 272.978 419.681 271.988C421.048 270.437 420.468 269.381 419.357 267.937Z" fill="#1F1C80"/>
<path d="M402.348 284.653C402.599 286.027 402.354 286.019 401.755 286.746C399.676 286.954 397.261 286.973 397.468 285.881C398.897 285.439 400.348 284.947 400.49 284.482C400.818 283.408 399.751 278.484 398.767 275.496C398.236 273.881 397.618 272.265 396.957 270.636C396.608 269.782 396.381 268.877 396.301 267.956C395.678 260.971 395.955 253.86 397.041 247.219H403.029C406.29 254.373 400.374 259.612 400.909 269.555C401.577 271.55 402.074 273.531 402.377 275.496C402.827 278.438 402.836 281.775 402.348 284.653Z" fill="#F7C1CE"/>
<path d="M402.407 285.019C402.718 286.268 402.54 286.99 402.261 287.683L400.821 287.682C400.821 287.682 400.583 287.092 400.273 287.211C398.851 287.755 396.127 288.073 395.69 287.373C395.301 286.753 397.468 285.881 397.468 285.881C398.117 286.94 399.703 286.466 402.407 285.019Z" fill="#1F1C80"/>
<path d="M413.117 264.515C413.117 264.515 411.432 266.377 409.848 265.991C409.848 265.991 408.094 268.65 405.339 266.814C403.25 268.105 401.165 268.105 399.077 266.814C396.324 268.65 394.567 265.991 394.567 265.991C392.984 266.377 391.299 264.515 391.299 264.515C392.811 257.4 396.296 251.999 396.557 246.493L405.484 246.642C407.828 248.975 408.301 258.588 413.117 264.515Z" fill="#1F1C80"/>
<path d="M394.769 231.632L393.941 236.88C393.941 236.88 393.54 236.599 392.914 236.135L394.467 231.379C394.568 231.463 394.668 231.547 394.769 231.632Z" fill="#F7C1CE"/>
<path d="M405.904 247.22C403.672 239.474 404.937 235.764 400.821 231.551C399.926 232.591 398.559 232.662 394.769 231.632L393.94 236.879C395.709 239.589 397.938 241.091 397.04 247.22H405.904Z" fill="#3E3279"/>
<path d="M406.198 247.859C402.645 248.385 399.726 247.148 397.462 247.391C397.223 247.417 396.99 247.459 396.764 247.523C396.293 247.649 395.805 247.287 395.888 246.807C396.646 242.57 396.095 240.487 395.085 239.12L395.076 239.11C394.399 238.194 393.508 237.596 392.67 236.881L392.914 236.136L394.467 231.38L394.538 231.163C399.39 233.409 399.604 230.775 400.5 229.732C402.247 231.521 403.273 233.637 404.044 236.074C404.759 238.337 405.255 240.875 405.907 243.685C406.16 244.755 406.433 245.86 406.749 247.009C406.854 247.4 406.597 247.8 406.198 247.859Z" fill="#50B846"/>
<path d="M397.846 243.999L397.462 247.392C397.222 247.417 396.991 247.459 396.763 247.522C396.292 247.649 395.804 247.287 395.888 246.807C396.646 242.57 396.095 240.487 395.084 239.119L396.341 240.191C397.445 241.131 398.008 242.558 397.846 243.999Z" fill="#50B846"/>
<path d="M405.907 243.685C405.285 243.891 404.531 243.856 404.161 243.806C402.819 243.625 401.585 241.967 401.137 241.071C400.545 239.887 397.192 240.453 397.057 237.768L404.043 236.073C404.759 238.337 405.255 240.874 405.907 243.685Z" fill="#50B846"/>
<path d="M409.142 233.165C408.93 232.411 408.578 231.7 408.393 230.939C408.089 229.679 408.261 228.347 408.008 227.075C407.755 225.803 406.441 224.851 405.463 223.999C404.727 223.358 405.476 221.977 404.394 220.245C403.991 219.599 402.517 219.051 401.542 219.17C400.566 219.288 399.674 219.944 399.269 220.84C398.882 221.697 399.152 223.633 398.826 224.516C398.387 225.706 397.073 225.667 396.811 226.908C396.433 228.695 397.904 230.376 397.958 232.202C397.994 233.424 397.395 234.564 397.093 235.749C396.792 236.935 396.911 238.425 397.957 239.059C398.796 239.568 399.923 239.328 400.787 239.795C401.797 240.342 402.129 241.667 403.048 242.357C404.212 243.232 406.166 242.594 406.59 241.201C406.941 240.049 406.363 238.71 406.915 237.64C407.384 236.734 408.518 236.337 409.023 235.45C409.41 234.769 409.353 233.919 409.142 233.165Z" fill="#1F1C80"/>
<path d="M362.264 186.716C362.389 180.291 367.699 175.183 374.124 175.308C380.549 175.432 385.657 180.742 385.533 187.167C385.408 193.593 380.098 198.7 373.673 198.576C367.248 198.452 362.14 193.142 362.264 186.716Z" fill="#58595B"/>
<path d="M368.418 174.976C361.791 177.981 358.833 185.793 361.825 192.39C364.816 198.988 372.642 201.911 379.268 198.906C385.895 195.901 388.853 188.089 385.861 181.492C382.87 174.894 375.045 171.971 368.418 174.976ZM378.434 197.065C372.818 199.612 366.209 197.144 363.674 191.552C361.138 185.961 363.636 179.364 369.252 176.817C374.868 174.271 381.477 176.739 384.012 182.33C386.548 187.921 384.05 194.519 378.434 197.065Z" fill="#5E4FB8"/>
<path d="M380.122 197.47L377.624 198.603L378.752 201.091L381.251 199.958L380.122 197.47Z" fill="#5E4FB8"/>
<path d="M392.693 221.954C393.353 223.293 392.746 224.924 391.352 225.556C389.958 226.188 388.33 225.571 387.758 224.192L380.013 205.508L379.581 204.468L379.259 203.687L378.827 202.647L378.288 201.347L381.75 199.777L382.373 201.04L382.871 202.05L383.246 202.807L383.743 203.818L392.693 221.954Z" fill="#5E4FB8"/>
<path d="M382.649 201.559L379.037 203.197L378.595 202.135L382.141 200.527L382.649 201.559Z" fill="white"/>
<path d="M383.54 203.366L379.809 205.057L379.367 203.995L383.031 202.333L383.54 203.366Z" fill="white"/>
<path d="M366.601 182.901C365.144 186.069 366.069 188.969 365.76 189.004C365.395 189.046 363.532 185.073 365.193 181.763C366.829 178.504 371.038 177.569 371.247 177.909C371.438 178.22 368.189 179.445 366.601 182.901Z" fill="#A7A9AC"/>
<path d="M366.733 190.244C367.217 190.425 367.461 190.963 367.278 191.446C367.095 191.929 366.554 192.174 366.07 191.993C365.587 191.813 365.343 191.275 365.526 190.792C365.708 190.309 366.249 190.064 366.733 190.244Z" fill="#A7A9AC"/>
<path d="M394.467 231.38L392.913 236.135C390.839 234.602 386.297 231.077 385.632 229.138C384.496 225.835 384.91 217.118 384.91 217.118C384.032 216.033 383.217 213.903 384.133 212.51C385.026 211.149 385.217 214.048 386.242 214.916C386.242 214.916 387.69 212.865 387.425 214.522C387.162 216.179 386.577 217.066 386.577 217.066C387.737 220.013 388.188 223.193 388.693 226.728C390.678 228.261 392.599 229.811 394.467 231.38Z" fill="#F7C1CE"/>
<path d="M93.8243 235.227C94.2951 234.811 94.8407 237.761 95.3696 238.557C95.8986 239.353 96.0646 237.144 96.4862 237.47C97.3838 238.166 96.4672 240.513 96.525 240.679C96.6712 241.097 97.6153 242.079 97.6153 242.079C97.6153 242.079 95.6675 243.503 95.5619 243.129C95.4558 242.755 94.7829 241.46 94.1443 240.547C92.7024 238.489 93.3532 235.643 93.8243 235.227Z" fill="#F7C1CE"/>
<path d="M111.15 244.299C110.188 246.664 105.858 252.68 102.675 253.001C99.1993 253.351 94.9385 242.551 94.9385 242.551L97.2555 241.132L102.249 247.672C103.819 247.013 104.722 240.962 107.413 239.275C108.898 238.343 112.506 240.963 111.15 244.299Z" fill="#F2721E"/>
<path d="M96.2695 241.127L97.2207 240.625L93.8721 234.289L92.9208 234.792L96.2695 241.127Z" fill="#414C96"/>
<path d="M93.9554 236.026C94.5389 235.607 94.8214 239.025 95.3319 239.992C95.8423 240.958 96.2846 238.464 96.7264 238.883C97.6678 239.778 96.3559 242.342 96.4028 242.538C96.5211 243.032 97.4833 244.256 97.4833 244.256C97.4833 244.256 95.1035 245.653 95.0263 245.216C94.9487 244.778 94.3313 243.227 93.7089 242.116C92.3054 239.609 93.3718 236.445 93.9554 236.026Z" fill="#F7C1CE"/>
<path d="M119.558 250.372C119.129 249.349 118.442 248.378 118.443 247.269C118.445 246.081 119.246 245.022 119.34 243.837C119.477 242.091 118.08 240.623 116.679 239.57C115.973 239.04 115.198 238.496 114.894 237.666C114.52 236.64 114.982 235.51 114.951 234.419C114.911 233.05 114.01 231.743 112.744 231.221C112.091 230.951 111.346 230.869 110.784 230.439C110.289 230.061 110.012 229.47 109.608 228.996C108.462 227.651 106.187 227.486 104.858 228.651C103.53 229.816 103.397 232.093 104.581 233.405C104.594 237.843 105.59 241.759 107.36 245.264C108.35 246.991 108.616 249.119 108.08 251.036C107.875 251.771 107.555 252.497 107.58 253.259C107.62 254.417 108.566 255.477 109.711 255.646C111.857 255.962 113.556 253.533 115.724 253.47C116.891 253.436 118.188 254.076 119.148 253.413C120.062 252.783 119.986 251.395 119.558 250.372Z" fill="#1F1C80"/>
<path d="M111.815 267.303C110.53 266.312 104.131 262.58 101.768 260.797C102.44 259.998 105.16 254.27 103.883 249.811C102.452 244.81 106.536 239.995 106.536 239.995L109.662 238.883C109.662 238.883 114.554 240.415 115.237 245.836C116.032 252.147 113.98 260.69 111.815 267.303Z" fill="#F2721E"/>
<path d="M109.663 238.884C108.277 240.005 106.95 240.994 106.537 239.996L106.467 239.606L106.155 237.783L106.13 237.649L106.396 237.416L108.795 235.318L109.445 237.982L109.663 238.884Z" fill="#F7C1CE"/>
<path d="M109.385 237.743C108.496 238.621 107.265 239.419 106.414 239.339L106.102 237.517L106.343 237.15L108.742 235.052L109.385 237.743Z" fill="#E8ACBA"/>
<path d="M108.781 234.133C107.117 234.497 105.133 230.056 104.83 231.563C104.127 235.062 104.653 237.579 105.537 237.997C106.867 238.628 109.343 237.401 109.625 235.481C109.625 235.481 111.011 234.597 110.564 233.891C109.949 232.921 108.781 234.133 108.781 234.133Z" fill="#F7C1CE"/>
<path d="M112.629 248.334C111.264 250.914 105.648 257.264 101.989 257.264C97.9938 257.264 94.3833 244.487 94.3833 244.487L97.1819 243.138L102.114 251.151C103.976 250.582 105.696 243.801 108.952 242.19C110.749 241.3 114.554 244.694 112.629 248.334Z" fill="#F2721E"/>
<path d="M77.2861 268.795C76.0635 269.366 74.9745 269.775 73.7018 270.22C72.889 269.46 71.8975 268.753 71.0752 268.004C72.1114 267.043 73.0759 266.028 74.0164 264.975C75.1153 266.241 76.1849 267.532 77.2861 268.795Z" fill="#F7C1CE"/>
<path d="M111.989 266.865C110.767 273.091 104.731 274.515 100.601 273.981C97.0587 273.523 93.4631 269.674 86.7841 264.187C83.5374 266.654 79.4034 268.614 75.5844 269.957C74.4272 268.751 73.3319 267.253 72.7583 265.562C77.5806 262.054 84.9202 254.64 88.0952 255.021C95.1659 255.869 105.056 263.298 111.989 266.865Z" fill="#1F1C80"/>
<path d="M73.8778 270.199C73.625 270.98 73.8344 271.156 73.4346 272.057C73.0352 272.959 72.4945 273.709 72.0197 274.747C71.7282 274.709 71.266 274.525 70.9903 274.452C71.1518 273.23 71.2299 272.885 71.3486 271.671C70.7777 272.176 69.8056 272.948 69.3331 273.408C68.8605 273.868 68.7414 274.1 68.1985 273.977C66.7664 273.655 61.8778 272.115 62.0918 270.446C62.3057 268.777 66.122 270.675 67.2638 270.001C68.4056 269.327 69.7632 268.565 70.9298 267.892C72.0012 268.562 72.7919 269.56 73.8778 270.199Z" fill="#1F1C80"/>
<path d="M211.685 354.387C211.341 356.351 211.141 358.103 211.052 359.721C210.82 363.856 210.899 367.123 211.556 371.056L213.545 370.934C213.545 370.934 215.275 362.701 216.203 357.075C216.442 355.647 216.624 354.375 216.711 353.42C217.225 347.971 214.508 332.968 214.333 331.997L214.326 331.96L214.324 331.946L207.933 331.428C204.8 342.477 208.873 344.749 211.685 354.387Z" fill="#F1CCCD"/>
<path d="M200.283 370.346C200.471 369.485 203.222 363.046 205.824 359.292C206.446 358.395 207.027 357.613 207.515 357.039C211.003 352.943 214.418 331.156 214.417 331.156C214.418 331.156 209.229 330.735 209.231 330.736C204.753 335.407 205.232 342.386 204.551 349.177C204.315 351.531 203.576 353.765 202.457 355.671C202.231 356.055 202.02 356.447 201.816 356.848C200.394 359.65 199.015 363.591 197.611 369.904C197.612 369.903 200.282 370.345 200.283 370.346Z" fill="#F1CCCD"/>
<path d="M219.359 350.858C219.365 351.224 219.047 351.511 218.685 351.464C212.485 350.672 208.519 352.743 203.594 351.951C203.311 351.906 203.024 351.851 202.734 351.786C202.215 351.67 201.835 351.218 201.8 350.687C201.266 342.691 201.682 335.481 203.887 330.861H215.421C215.421 330.861 219.233 343.813 219.359 350.858Z" fill="#1F1C80"/>
<path d="M203.565 344.267C203.569 348.217 203.585 350.632 203.595 351.951C203.312 351.906 203.025 351.851 202.734 351.786C202.215 351.67 201.836 351.218 201.801 350.687C201.266 342.691 201.683 335.481 203.888 330.861H204.43L205.051 331.474C205.051 331.474 203.557 337.56 203.565 344.267Z" fill="#110E6B"/>
<path d="M213.427 303.521C213.435 302.61 213.159 301.657 212.491 301.038C211.664 300.272 210.389 300.164 209.307 300.479C208.225 300.794 207.288 301.466 206.375 302.126C204.948 303.159 203.423 304.331 202.999 306.041C202.509 308.022 203.658 310.189 202.973 312.112C202.481 313.491 201.178 314.377 200.126 315.395C199.074 316.413 198.185 317.962 198.808 319.287C199.518 320.796 201.731 321.043 202.548 322.496C203.064 323.412 202.885 324.575 203.294 325.543C203.715 326.538 204.793 327.216 205.873 327.163C206.953 327.111 207.961 326.332 208.283 325.3C208.499 324.611 208.429 323.855 208.657 323.17C209.008 322.115 209.983 321.42 210.73 320.597C212.523 318.623 213.033 315.58 211.651 313.143C212.781 311.063 213.301 308.81 212.573 306.205C213.16 305.319 213.419 304.431 213.427 303.521Z" fill="#1F1C80"/>
<path d="M220.217 317.93L223.439 319.082L225.886 312.241L222.664 311.088L220.217 317.93Z" fill="#1F1C80"/>
<path d="M215.715 323.581C215.715 323.581 215.941 328.198 218.353 328.398C220.376 328.57 222.698 320.806 224.294 318.76C225.831 316.791 226.704 315.2 225.658 314.575C222.894 312.925 222.74 315.738 222.633 317.89L219.397 322.89L215.996 314.068L215.715 323.581Z" fill="#F1CCCD"/>
<path d="M211.822 308.93C208.899 311.419 207.253 306.901 207.253 306.901C207.253 306.901 205.953 306.302 206.467 305.116C206.921 304.064 208.053 305.361 208.053 305.361C209.596 305.361 210.822 304.024 211.463 303.137C211.689 302.825 212.17 302.894 212.29 303.257C212.582 304.14 212.942 305.541 212.817 306.813C212.735 307.63 212.452 308.392 211.822 308.93Z" fill="#F1CCCD"/>
<path d="M196.117 341.406C197.355 341.713 198.631 339.779 198.631 339.779C198.631 339.779 199.134 341.035 199.519 340.463C199.904 339.887 199.283 338.337 199.283 338.337L199.639 337.167L203.609 324.131L203.323 314.444C200.807 315.506 198.506 331.681 197.851 336.683C197.73 337.602 197.667 338.143 197.667 338.143C197.667 338.143 194.785 341.075 196.117 341.406Z" fill="#F1CCCD"/>
<path d="M224.375 318.896C223.488 321.401 220.34 328.503 218.326 328.503C218.208 328.503 218.09 328.477 217.972 328.428C217.136 328.082 216.335 326.581 215.733 325.136C215.146 323.722 214.751 322.362 214.702 322.189L214.696 322.171C214.47 324.392 215.33 331.162 215.596 331.068C212.729 332.056 209.201 332.26 205.766 331.641L205.743 331.635C205.01 331.504 204.283 331.335 203.566 331.126C205.444 328.401 206.014 323.602 205.051 321.986C205.044 322.055 205.03 322.139 205.01 322.238C204.484 324.908 199.731 338.28 199.688 338.27C199.171 338.149 197.422 337.78 197.428 337.738C198.111 332.651 200.846 315.472 203.353 314.421L208.477 311.498C208.49 311.488 208.506 311.485 208.522 311.487L211.311 311.553C211.324 311.553 211.334 311.555 211.346 311.561C211.579 311.681 214.352 313.105 215.559 313.727C215.917 313.911 216.192 314.222 216.331 314.599L219.334 322.749C219.359 322.815 219.45 322.825 219.487 322.764L222.532 317.522C222.559 317.479 224.386 318.86 224.375 318.896Z" fill="#024FA0"/>
<path d="M211.291 311.551C210.198 313.022 209.254 312.822 208.409 311.492L208.707 308.794L210.845 308.954C210.916 309.207 211.201 311.116 211.291 311.551Z" fill="#F1CCCD"/>
<path d="M205.01 322.238L205.051 321.987C205.043 322.055 205.029 322.14 205.01 322.238Z" fill="#DB85B4"/>
<path d="M205.051 331.474L203.565 331.126C205.444 328.401 206.01 323.625 205.048 322.009L205.539 320.55C206.691 322.785 207.399 326.115 205.051 331.474Z" fill="#024FA0"/>
<path d="M217.972 328.428C217.136 328.083 216.335 326.581 215.733 325.137L214.702 322.19L214.696 322.172C215.143 320.391 215.053 319.503 214.824 318.009C215.929 319.9 215.561 326.483 217.972 328.428Z" fill="#024FA0"/>
<path d="M198.127 367.686L197.119 368.973L195.666 371.732L196.152 372.106L198.157 370.2L197.943 372.242C197.885 372.791 197.988 373.345 198.397 373.716C199.477 374.695 201.769 376.347 202.406 375.635C203.062 374.903 200.837 373.306 200.792 371.969C200.748 370.675 200.759 369.029 200.759 369.029L198.127 367.686Z" fill="#414C96"/>
<path d="M211.528 370.886L211.046 372.485L211.383 375.186L211.918 375.212L212.402 372.846L213.268 374.415C213.502 374.838 213.851 375.183 214.33 375.245C215.592 375.406 218.059 375.445 218.16 374.617C218.264 373.766 215.873 373.733 215.173 372.798C214.496 371.892 213.545 370.825 213.545 370.825L211.528 370.886Z" fill="#414C96"/>
<path d="M555.565 117.728C555.511 117.463 555.454 117.193 555.317 116.96C554.999 116.419 554.236 116.196 553.677 116.482C553.637 116.502 553.597 116.525 553.552 116.526C553.418 116.529 553.367 116.356 553.333 116.225C553.193 115.69 552.64 115.333 552.088 115.295C551.536 115.256 550.995 115.483 550.534 115.789C550.2 116.011 549.867 116.336 549.885 116.737C549.888 116.8 549.899 116.868 549.867 116.922C549.843 116.964 549.799 116.989 549.759 117.014C549.238 117.33 548.883 117.904 548.834 118.511C548.784 119.117 549.082 120.321 549.544 120.719L554.157 121.562C554.923 121.475 555.501 120.766 555.678 120.017C555.856 119.268 555.717 118.483 555.565 117.728Z" fill="#1F1C80"/>
<path d="M558.136 133.818L558.421 141.708H546.112L545.117 134.553L544.283 126.989C545.363 126.164 548.164 126.385 550.705 126.375L551.001 124.864L551.166 124.025H553.584L553.802 125.005L554.125 126.445C555.894 126.313 557.883 126.573 558.85 126.881L558.136 133.818Z" fill="#F7C1CE"/>
<path d="M550.705 126.373C548.164 126.385 545.364 126.165 544.284 126.988L545.116 134.552L546.112 141.708H558.421L558.135 133.818L558.851 126.88C557.882 126.573 555.892 126.312 554.124 126.444C553.603 128.672 550.706 128.203 550.705 126.373Z" fill="#F2721E"/>
<path d="M564.959 164.608C565.195 162.075 564.766 158.813 564.157 155.957C563.466 152.719 562.541 149.998 562.078 149.432C561.015 148.134 559.008 150.497 552.429 150.121C545.847 150.497 543.84 148.134 542.777 149.432C542.332 149.976 541.457 152.519 540.778 155.593C540.127 158.535 539.654 161.967 539.899 164.608L540.585 166.845L531.573 169.196L537.043 164.623C536.669 162.919 536.256 159.241 536.243 155.29C536.226 149.645 537.03 143.451 539.959 141.707C542.59 140.144 552.291 141.179 552.291 141.179C552.291 141.179 562.266 140.144 564.896 141.707C567.925 143.509 568.682 150.063 568.609 155.854C568.562 159.587 568.168 163.002 567.815 164.623L572.169 168.906L564.27 166.845L564.959 164.608Z" fill="#F7C1CE"/>
<path d="M569.223 156.593L563.585 157.189C562.894 153.951 562.107 150.52 561.643 149.954C560.581 148.656 559.009 150.497 552.429 150.121C545.847 150.497 544.854 148.656 543.791 149.954C543.346 150.497 542.231 154.49 541.552 157.564L535.539 156.813C535.521 151.168 537.03 143.452 539.959 141.708C542.59 140.145 552.291 141.18 552.291 141.18C552.291 141.18 562.265 140.145 564.896 141.708C567.926 143.51 569.295 150.803 569.223 156.593Z" fill="#1F1C80"/>
<path d="M549.523 137.328C549.53 137.359 549.536 137.391 549.538 137.421C549.265 137.419 548.992 137.419 548.714 137.416C549.097 137.113 549.44 136.967 549.523 137.328Z" fill="#F7C1CE"/>
<path d="M551.502 137.432C551.282 137.429 551.059 137.429 550.833 137.427C550.969 137.233 551.207 137.276 551.502 137.432Z" fill="#F7C1CE"/>
<path d="M552.324 137.436C552.103 137.434 551.875 137.431 551.647 137.431C551.948 137.273 552.191 137.233 552.324 137.436Z" fill="#F7C1CE"/>
<path d="M554.471 137.446C554.196 137.446 553.908 137.444 553.609 137.441C553.612 137.404 553.619 137.366 553.627 137.329C553.712 136.958 554.076 137.123 554.471 137.446Z" fill="#F7C1CE"/>
<path d="M552.447 138.043C552.442 138.704 552.174 139.639 551.578 140.358C550.836 141.252 549.591 141.813 547.727 141.102C547.296 140.937 538.366 143.685 536.765 139.912C536.474 139.226 536.507 138.356 536.76 137.391C537.87 133.167 543.44 127.137 544.502 126.871C545.81 126.543 545.116 134.553 545.116 134.553C545.116 134.553 543.147 136.284 542.771 137.394C542.701 137.602 542.685 137.788 542.748 137.938C543.214 139.041 547.476 138.689 547.476 138.689C547.476 138.689 548.14 137.875 548.714 137.417C549.097 137.113 549.441 136.968 549.523 137.329C549.53 137.359 549.536 137.392 549.538 137.422C549.618 138.056 549.03 138.679 549.03 138.679C549.513 138.812 550.129 138.436 550.706 138.043C551.017 137.83 551.315 137.615 551.575 137.469C551.6 137.456 551.625 137.442 551.648 137.432C551.949 137.274 552.192 137.233 552.325 137.437C552.375 137.509 552.41 137.612 552.43 137.75C552.442 137.84 552.447 137.938 552.447 138.043Z" fill="#F7C1CE"/>
<path d="M566.386 139.912C564.787 143.685 555.855 140.937 555.424 141.102C553.56 141.814 552.317 141.252 551.578 140.358C550.979 139.638 550.711 138.704 550.706 138.042C550.706 137.937 550.711 137.839 550.724 137.749C550.744 137.604 550.781 137.499 550.834 137.426C550.969 137.233 551.207 137.276 551.503 137.431C551.528 137.441 551.55 137.453 551.575 137.468C551.836 137.614 552.136 137.832 552.447 138.042C553.024 138.436 553.637 138.811 554.121 138.679C554.121 138.679 553.544 138.067 553.61 137.441C553.612 137.403 553.62 137.365 553.627 137.328C553.713 136.957 554.076 137.123 554.472 137.446C555.038 137.907 555.675 138.689 555.675 138.689C555.675 138.689 559.936 139.039 560.405 137.937C560.46 137.805 560.457 137.649 560.412 137.479C560.129 136.419 558.17 134.783 558.17 134.783C558.17 134.783 557.546 126.552 558.851 126.88C559.931 127.148 565.441 133.347 566.438 137.576C566.646 138.466 566.659 139.27 566.386 139.912Z" fill="#F7C1CE"/>
<path d="M545.828 134.169C545.828 134.169 543.408 136.311 543.032 137.421C540.86 137.416 538.152 137.111 536.397 137.116C538.969 131.224 543.519 127.201 544.547 126.824C546.296 126.182 545.828 134.169 545.828 134.169Z" fill="#F2721E"/>
<path d="M566.438 137.576C564.664 137.516 562.177 137.489 560.412 137.479C560.129 136.419 557.714 134.392 557.714 134.392C557.714 134.392 557.546 126.552 558.851 126.88C559.931 127.148 565.441 133.347 566.438 137.576Z" fill="#F2721E"/>
<path d="M553.802 125.004C553.406 125.152 552.947 125.252 552.447 125.244C551.817 125.234 551.344 125.069 551.001 124.863L551.166 124.024H553.584L553.802 125.004Z" fill="#E3BABB"/>
<path d="M550.003 119.515L550.061 120.371C550.061 120.371 549.086 119.615 549.086 120.595C549.086 121.575 550.037 121.863 550.037 121.863C550.037 121.863 550.178 124.605 552.395 124.605C555.007 124.605 554.725 122.028 554.725 122.028C554.725 122.028 555.761 121.078 555.475 120.466C555.189 119.854 554.477 120.525 554.477 120.525C553.96 118.975 552.249 119.758 550.929 118.223C550.596 117.836 550.003 119.006 550.003 119.515Z" fill="#F7C1CE"/>
<path d="M540.586 166.846C540.814 165.888 540.537 164.959 539.883 164.411L537.043 164.624C535.148 166.177 532.122 166.357 531.831 169.129L540.586 166.846Z" fill="#1F1C80"/>
<path d="M564.305 166.916C564.096 165.959 564.35 165.029 564.951 164.481L567.816 164.624C569.555 166.177 573.028 166.443 572.84 169.403L564.305 166.916Z" fill="#1F1C80"/>
<path d="M558.222 131.684H546.583C545.69 131.684 544.966 132.247 544.966 132.941V140.391C544.966 141.085 545.69 141.648 546.583 141.648H558.222C559.114 141.648 559.838 141.085 559.838 140.391V132.941C559.838 132.247 559.115 131.684 558.222 131.684Z" fill="#B5BFFF"/>
<path d="M551.156 137.116C551.156 136.471 551.679 135.948 552.325 135.948C552.97 135.948 553.493 136.471 553.493 137.116C553.493 137.761 552.97 138.284 552.325 138.284C551.679 138.284 551.156 137.761 551.156 137.116Z" fill="white"/>
<path d="M489.891 62.6508C488.832 62.6508 487.832 62.8675 486.947 63.2511C487.474 62.2176 487.767 61.0753 487.767 59.8748C487.767 55.2286 483.39 51.4624 477.991 51.4624C472.592 51.4624 468.215 55.229 468.215 59.8748C468.215 59.9827 468.217 60.0901 468.222 60.1971C467.641 59.9895 467.004 59.8748 466.335 59.8748C464.173 59.8748 462.337 61.0735 461.674 62.7402C461.295 62.6815 460.905 62.6508 460.507 62.6508C456.89 62.6508 453.957 65.1746 453.957 68.2873C453.957 71.4 456.89 73.9237 460.507 73.9237C462.625 73.9237 464.508 73.0585 465.705 71.7168C466.899 73.0906 468.805 73.9801 470.952 73.9801C472.696 73.9801 474.28 73.3938 475.453 72.438C476.627 73.3938 478.211 73.9801 479.954 73.9801C481.957 73.9801 483.749 73.2066 484.95 71.9885C486.151 73.1745 487.919 73.9241 489.89 73.9241C493.508 73.9241 496.44 71.4004 496.44 68.2877C496.441 65.1746 493.508 62.6508 489.891 62.6508Z" fill="#EAE8FF"/>
<path d="M70.7493 143.812C69.6905 143.812 68.6909 144.029 67.8058 144.412C68.3325 143.379 68.625 142.237 68.625 141.036C68.625 136.39 64.2481 132.624 58.8491 132.624C53.4501 132.624 49.0733 136.39 49.0733 141.036C49.0733 141.144 49.0755 141.251 49.0805 141.358C48.4992 141.151 47.862 141.036 47.1936 141.036C45.0318 141.036 43.1954 142.235 42.5324 143.901C42.1538 143.843 41.7638 143.812 41.3658 143.812C37.7485 143.812 34.8159 146.336 34.8159 149.448C34.8159 152.561 37.7485 155.085 41.3658 155.085C43.4838 155.085 45.3662 154.22 46.5635 152.877C47.7582 154.251 49.664 155.141 51.8114 155.141C53.5548 155.141 55.1389 154.555 56.3123 153.599C57.4862 154.555 59.0698 155.141 60.8132 155.141C62.8157 155.141 64.6078 154.367 65.8092 153.149C67.0102 154.335 68.778 155.085 70.7493 155.085C74.3665 155.085 77.2991 152.561 77.2991 149.448C77.2991 146.336 74.3665 143.812 70.7493 143.812Z" fill="#EAE8FF"/>
<path d="M598.941 111.064C597.882 111.064 596.883 111.281 595.998 111.665C596.524 110.631 596.817 109.489 596.817 108.288C596.817 103.642 592.44 99.876 587.041 99.876C581.642 99.876 577.265 103.643 577.265 108.288C577.265 108.396 577.267 108.504 577.272 108.611C576.691 108.403 576.054 108.288 575.385 108.288C573.223 108.288 571.387 109.487 570.724 111.154C570.345 111.095 569.955 111.064 569.557 111.064C565.94 111.064 563.007 113.588 563.007 116.701C563.007 119.814 565.94 122.337 569.557 122.337C571.675 122.337 573.558 121.472 574.755 120.13C575.95 121.504 577.855 122.393 580.003 122.393C581.746 122.393 583.33 121.807 584.504 120.851C585.677 121.807 587.261 122.393 589.005 122.393C591.007 122.393 592.799 121.62 594.001 120.402C595.202 121.588 596.969 122.337 598.941 122.337C602.558 122.337 605.491 119.814 605.491 116.701C605.491 113.588 602.558 111.064 598.941 111.064Z" fill="#EAE8FF"/>
<path d="M387.145 98.9016C386.086 98.9016 385.087 99.1182 384.202 99.5018C384.728 98.4683 385.021 97.3265 385.021 96.1256C385.021 91.4793 380.644 87.7131 375.245 87.7131C369.846 87.7131 365.469 91.4798 365.469 96.1256C365.469 96.2334 365.472 96.3408 365.476 96.4483C364.895 96.2406 364.258 96.1256 363.59 96.1256C361.428 96.1256 359.591 97.3242 358.928 98.9909C358.55 98.9323 358.16 98.9016 357.762 98.9016C354.145 98.9016 351.212 101.425 351.212 104.538C351.212 107.651 354.145 110.174 357.762 110.174C359.88 110.174 361.762 109.309 362.96 107.967C364.154 109.341 366.06 110.23 368.207 110.23C369.951 110.23 371.535 109.644 372.708 108.688C373.882 109.644 375.466 110.23 377.209 110.23C379.212 110.23 381.004 109.457 382.205 108.239C383.406 109.425 385.174 110.174 387.146 110.174C390.763 110.174 393.696 107.651 393.696 104.538C393.695 101.425 390.763 98.9016 387.145 98.9016Z" fill="#EAE8FF"/>
<path d="M184.242 60.809C183.184 60.809 182.184 61.0257 181.299 61.4093C181.826 60.3758 182.118 59.2335 182.118 58.033C182.118 53.3868 177.741 49.6206 172.342 49.6206C166.943 49.6206 162.566 53.3872 162.566 58.033C162.566 58.1409 162.569 58.2483 162.574 58.3553C161.992 58.1477 161.355 58.033 160.687 58.033C158.525 58.033 156.689 59.2317 156.026 60.8984C155.647 60.8397 155.257 60.809 154.859 60.809C151.242 60.809 148.309 63.3328 148.309 66.4455C148.309 69.5582 151.242 72.0819 154.859 72.0819C156.977 72.0819 158.859 71.2167 160.057 69.8745C161.251 71.2483 163.157 72.1378 165.305 72.1378C167.048 72.1378 168.632 71.5516 169.805 70.5957C170.979 71.5516 172.563 72.1378 174.306 72.1378C176.309 72.1378 178.101 71.3643 179.302 70.1462C180.503 71.3323 182.271 72.0819 184.243 72.0819C187.86 72.0819 190.793 69.5582 190.793 66.4455C190.792 63.3328 187.86 60.809 184.242 60.809Z" fill="#EAE8FF"/>
<path d="M41.3255 366.704H38.54L46.1536 328.716H48.9391L41.3255 366.704Z" fill="#95A3CC"/>
<path d="M79.099 366.704H81.8844L74.2708 328.716H71.4854L79.099 366.704Z" fill="#95A3CC"/>
<path d="M81.5412 332.244V336.117C81.5412 336.542 81.1969 336.887 80.7718 336.887H38.6997C38.5701 336.887 38.4474 336.855 38.3404 336.797C38.0963 336.669 37.9302 336.412 37.9302 336.117V332.244C37.9302 331.819 38.2745 331.475 38.6997 331.475H80.7722C81.1969 331.475 81.5412 331.819 81.5412 332.244Z" fill="#FF6EE0"/>
<path d="M41.94 331.805L38.6779 336.477C38.4378 336.365 38.2744 336.139 38.2744 335.88V333.895L39.7385 331.805H41.94V331.805Z" fill="white"/>
<path d="M47.4968 331.806L44.2013 336.556H41.9614L45.265 331.806H47.4968Z" fill="white"/>
<path d="M53.1274 331.806L49.8541 336.556H47.584L50.8668 331.806H53.1274Z" fill="white"/>
<path d="M58.8338 331.806L55.5816 336.556H53.2817L56.5416 331.806H58.8338Z" fill="white"/>
<path d="M64.6157 331.806L61.3857 336.556H59.0542L62.2928 331.806H64.6157Z" fill="white"/>
<path d="M70.4771 331.806L67.2683 336.556H64.9048L68.1222 331.806H70.4771Z" fill="white"/>
<path d="M76.4173 331.806L73.2306 336.556H70.8354L74.0312 331.806H76.4173Z" fill="white"/>
<path d="M81.1976 332.481V333.017L78.7266 336.555H76.5161L79.8414 331.805H80.4398C80.8586 331.805 81.1976 332.108 81.1976 332.481Z" fill="white"/>
<path d="M81.5412 340.432V344.305C81.5412 344.731 81.1969 345.075 80.7718 345.075H38.6997C38.5701 345.075 38.4474 345.043 38.3404 344.986C38.0963 344.857 37.9302 344.601 37.9302 344.305V340.432C37.9302 340.007 38.2745 339.663 38.6997 339.663H80.7722C81.1969 339.663 81.5412 340.007 81.5412 340.432Z" fill="#FF6EE0"/>
<path d="M41.94 339.994L38.6779 344.666C38.4378 344.553 38.2744 344.328 38.2744 344.069V342.084L39.7385 339.993H41.94V339.994Z" fill="white"/>
<path d="M47.4968 339.994L44.2013 344.744H41.9614L45.265 339.994H47.4968Z" fill="white"/>
<path d="M53.1274 339.994L49.8541 344.744H47.584L50.8668 339.994H53.1274Z" fill="white"/>
<path d="M58.8338 339.994L55.5816 344.744H53.2817L56.5416 339.994H58.8338Z" fill="white"/>
<path d="M64.6157 339.994L61.3857 344.744H59.0542L62.2928 339.994H64.6157Z" fill="white"/>
<path d="M70.4771 339.994L67.2683 344.744H64.9048L68.1222 339.994H70.4771Z" fill="white"/>
<path d="M76.4173 339.994L73.2306 344.744H70.8354L74.0312 339.994H76.4173Z" fill="white"/>
<path d="M81.1976 340.669V341.206L78.7266 344.745H76.5161L79.8414 339.994H80.4398C80.8586 339.994 81.1976 340.296 81.1976 340.669Z" fill="white"/>
<path d="M81.5412 348.621V352.494C81.5412 352.919 81.1969 353.264 80.7718 353.264H38.6997C38.5701 353.264 38.4474 353.232 38.3404 353.174C38.0963 353.046 37.9302 352.789 37.9302 352.494V348.621C37.9302 348.196 38.2745 347.852 38.6997 347.852H80.7722C81.1969 347.852 81.5412 348.196 81.5412 348.621Z" fill="#FF6EE0"/>
<path d="M41.94 348.182L38.6779 352.854C38.4378 352.741 38.2744 352.516 38.2744 352.257V350.272L39.7385 348.181H41.94V348.182Z" fill="white"/>
<path d="M47.4968 348.182L44.2013 352.933H41.9614L45.265 348.182H47.4968Z" fill="white"/>
<path d="M53.1274 348.182L49.8541 352.933H47.584L50.8668 348.182H53.1274Z" fill="white"/>
<path d="M58.8338 348.182L55.5816 352.933H53.2817L56.5416 348.182H58.8338Z" fill="white"/>
<path d="M64.6157 348.182L61.3857 352.933H59.0542L62.2928 348.182H64.6157Z" fill="white"/>
<path d="M70.4771 348.182L67.2683 352.933H64.9048L68.1222 348.182H70.4771Z" fill="white"/>
<path d="M76.4173 348.182L73.2306 352.933H70.8354L74.0312 348.182H76.4173Z" fill="white"/>
<path d="M81.1976 348.857V349.394L78.7266 352.932H76.5161L79.8414 348.182H80.4398C80.8586 348.182 81.1976 348.484 81.1976 348.857Z" fill="white"/>
<path d="M44.3569 326.053C44.3569 324.197 45.8612 322.693 47.7169 322.693C49.5727 322.693 51.077 324.197 51.077 326.053C51.077 327.909 49.5727 329.413 47.7169 329.413C45.8616 329.413 44.3569 327.909 44.3569 326.053Z" fill="#FF6EE0"/>
<path d="M45.4517 326.053C45.4517 324.802 46.4662 323.788 47.7172 323.788C48.9687 323.788 49.9828 324.802 49.9828 326.053C49.9828 327.305 48.9683 328.319 47.7172 328.319C46.4662 328.319 45.4517 327.304 45.4517 326.053Z" fill="#FAE396"/>
<path d="M68.8525 326.053C68.8525 324.197 70.3572 322.693 72.2125 322.693C74.0683 322.693 75.5726 324.197 75.5726 326.053C75.5726 327.909 74.0683 329.413 72.2125 329.413C70.3572 329.413 68.8525 327.909 68.8525 326.053Z" fill="#FF6EE0"/>
<path d="M69.9473 326.053C69.9473 324.802 70.9618 323.788 72.2128 323.788C73.4639 323.788 74.4784 324.802 74.4784 326.053C74.4784 327.305 73.4639 328.319 72.2128 328.319C70.9618 328.319 69.9473 327.304 69.9473 326.053Z" fill="#FAE396"/>
<path d="M78.2346 357.746H40.9541V359.125H78.2346V357.746Z" fill="#95A3CC"/>
<path d="M78.2346 361.053H40.9541V362.433H78.2346V361.053Z" fill="#95A3CC"/>
<path d="M43.2449 366.704H36.8164V367.838H43.2449V366.704Z" fill="#95A3CC"/>
<path d="M83.7146 366.704H77.2861V367.838H83.7146V366.704Z" fill="#95A3CC"/>
<path d="M470.385 367.078H467.6L475.213 329.091H477.999L470.385 367.078Z" fill="#95A3CC"/>
<path d="M508.159 367.078H510.945L503.331 329.091H500.545L508.159 367.078Z" fill="#95A3CC"/>
<path d="M510.602 332.619V336.492C510.602 336.917 510.257 337.261 509.832 337.261H467.76C467.63 337.261 467.507 337.229 467.401 337.172C467.156 337.044 466.99 336.787 466.99 336.492V332.619C466.99 332.194 467.335 331.849 467.76 331.849H509.832C510.257 331.849 510.602 332.194 510.602 332.619Z" fill="#FF6EE0"/>
<path d="M471 332.18L467.738 336.852C467.498 336.74 467.334 336.514 467.334 336.256V334.271L468.799 332.18H471Z" fill="white"/>
<path d="M476.557 332.18L473.261 336.931H471.021L474.325 332.18H476.557Z" fill="white"/>
<path d="M482.187 332.18L478.913 336.931H476.644L479.926 332.18H482.187Z" fill="white"/>
<path d="M487.893 332.18L484.641 336.931H482.341L485.601 332.18H487.893Z" fill="white"/>
<path d="M493.675 332.18L490.445 336.931H488.114L491.353 332.18H493.675Z" fill="white"/>
<path d="M499.537 332.18L496.328 336.931H493.965L497.182 332.18H499.537Z" fill="white"/>
<path d="M505.477 332.18L502.291 336.931H499.895L503.091 332.18H505.477Z" fill="white"/>
<path d="M510.258 332.856V333.392L507.787 336.931H505.576L508.902 332.18H509.5C509.919 332.18 510.258 332.483 510.258 332.856Z" fill="white"/>
<path d="M510.602 340.807V344.68C510.602 345.106 510.257 345.45 509.832 345.45H467.76C467.63 345.45 467.507 345.418 467.401 345.361C467.156 345.232 466.99 344.976 466.99 344.68V340.807C466.99 340.382 467.335 340.038 467.76 340.038H509.832C510.257 340.038 510.602 340.382 510.602 340.807Z" fill="#FF6EE0"/>
<path d="M471 340.368L467.738 345.04C467.498 344.928 467.334 344.702 467.334 344.444V342.459L468.799 340.368H471Z" fill="white"/>
<path d="M476.557 340.368L473.261 345.119H471.021L474.325 340.368H476.557Z" fill="white"/>
<path d="M482.187 340.368L478.913 345.119H476.644L479.926 340.368H482.187Z" fill="white"/>
<path d="M487.893 340.368L484.641 345.119H482.341L485.601 340.368H487.893Z" fill="white"/>
<path d="M493.675 340.368L490.445 345.119H488.114L491.353 340.368H493.675Z" fill="white"/>
<path d="M499.537 340.368L496.328 345.119H493.965L497.182 340.368H499.537Z" fill="white"/>
<path d="M505.477 340.368L502.291 345.119H499.895L503.091 340.368H505.477Z" fill="white"/>
<path d="M510.258 341.044V341.58L507.787 345.119H505.576L508.902 340.368H509.5C509.919 340.368 510.258 340.671 510.258 341.044Z" fill="white"/>
<path d="M510.602 348.996V352.869C510.602 353.294 510.257 353.638 509.832 353.638H467.76C467.63 353.638 467.507 353.606 467.401 353.549C467.156 353.421 466.99 353.164 466.99 352.869V348.996C466.99 348.57 467.335 348.226 467.76 348.226H509.832C510.257 348.226 510.602 348.57 510.602 348.996Z" fill="#FF6EE0"/>
<path d="M471 348.556L467.738 353.228C467.498 353.116 467.334 352.89 467.334 352.631V350.646L468.799 348.556H471V348.556Z" fill="white"/>
<path d="M476.557 348.556L473.261 353.307H471.021L474.325 348.556H476.557Z" fill="white"/>
<path d="M482.187 348.556L478.913 353.307H476.644L479.926 348.556H482.187Z" fill="white"/>
<path d="M487.893 348.556L484.641 353.307H482.341L485.601 348.556H487.893Z" fill="white"/>
<path d="M493.675 348.556L490.445 353.307H488.114L491.353 348.556H493.675Z" fill="white"/>
<path d="M499.537 348.556L496.328 353.307H493.965L497.182 348.556H499.537Z" fill="white"/>
<path d="M505.477 348.556L502.291 353.307H499.895L503.091 348.556H505.477Z" fill="white"/>
<path d="M510.258 349.232V349.768L507.787 353.307H505.576L508.902 348.556H509.5C509.919 348.556 510.258 348.859 510.258 349.232Z" fill="white"/>
<path d="M473.417 326.428C473.417 324.572 474.922 323.068 476.778 323.068C478.633 323.068 480.138 324.572 480.138 326.428C480.138 328.283 478.633 329.788 476.778 329.788C474.922 329.788 473.417 328.283 473.417 326.428Z" fill="#FF6EE0"/>
<path d="M476.777 328.693C478.029 328.693 479.043 327.679 479.043 326.428C479.043 325.176 478.029 324.162 476.777 324.162C475.526 324.162 474.512 325.176 474.512 326.428C474.512 327.679 475.526 328.693 476.777 328.693Z" fill="#FAE396"/>
<path d="M497.913 326.428C497.913 324.572 499.417 323.068 501.273 323.068C503.128 323.068 504.633 324.572 504.633 326.428C504.633 328.283 503.128 329.788 501.273 329.788C499.417 329.788 497.913 328.283 497.913 326.428Z" fill="#FF6EE0"/>
<path d="M499.007 326.428C499.007 325.176 500.022 324.162 501.273 324.162C502.524 324.162 503.539 325.177 503.539 326.428C503.539 327.679 502.524 328.693 501.273 328.693C500.021 328.693 499.007 327.679 499.007 326.428Z" fill="#FAE396"/>
<path d="M507.295 358.121H470.014V359.501H507.295V358.121Z" fill="#95A3CC"/>
<path d="M507.295 361.428H470.014V362.807H507.295V361.428Z" fill="#95A3CC"/>
<path d="M472.305 367.078H465.876V368.213H472.305V367.078Z" fill="#95A3CC"/>
<path d="M512.775 367.078H506.346V368.213H512.775V367.078Z" fill="#95A3CC"/>
<path d="M110.089 366.548H95.2646L95.6189 365.532L95.8098 364.985L96.4538 363.141L96.8311 362.057L97.4752 360.213L98.126 358.346L98.3462 357.715L100.15 352.544L100.503 351.532L101.017 350.061C101.565 348.489 103.786 348.489 104.335 350.061L104.848 351.532L105.201 352.544L107.005 357.715L107.225 358.346L107.876 360.213L108.52 362.057L108.898 363.141L109.542 364.985L109.733 365.532L110.089 366.548Z" fill="#FF6EE0"/>
<path d="M107.976 364.985H95.8101L96.4545 363.141H107.333L107.976 364.985Z" fill="white"/>
<path d="M106.954 362.056H96.8311L97.4751 360.212H106.309L106.954 362.056Z" fill="white"/>
<path d="M105.439 357.715H98.3472L100.151 352.544H103.635L105.439 357.715Z" fill="white"/>
<path d="M108.521 362.056H106.954L106.31 360.212H107.877L108.521 362.056Z" fill="#F0F0F0"/>
<path d="M107.006 357.715H105.439L103.635 352.544H105.202L107.006 357.715Z" fill="#F0F0F0"/>
<path d="M104.849 351.532L105.202 352.544H103.635L103.282 351.532L102.768 350.061C102.6 349.58 102.276 349.248 101.893 349.061C102.767 348.636 103.954 348.969 104.335 350.061L104.849 351.532Z" fill="#EB57CB"/>
<path d="M107.877 360.212H106.31L105.659 358.346L105.439 357.715H107.006L107.227 358.346L107.877 360.212Z" fill="#EB57CB"/>
<path d="M109.543 364.985H107.976L107.333 363.141H108.899L109.543 364.985Z" fill="#F0F0F0"/>
<path d="M108.899 363.141H107.332L106.954 362.056H108.521L108.899 363.141Z" fill="#EB57CB"/>
<path d="M110.089 366.548H108.521L107.976 364.985H109.543L110.089 366.548Z" fill="#EB57CB"/>
<path d="M110.089 366.548H95.2646L95.6189 365.532H109.735L110.089 366.548Z" fill="#EB57CB"/>
<path d="M110.77 367.99H94.5835C93.856 367.99 93.2661 367.56 93.2661 367.029C93.2661 366.499 93.856 366.069 94.5835 366.069H110.77C111.497 366.069 112.087 366.499 112.087 367.029C112.087 367.56 111.497 367.99 110.77 367.99Z" fill="#FF6EE0"/>
<path d="M111.799 366.431C111.8 366.452 111.803 366.472 111.803 366.493C111.803 367.023 111.213 367.453 110.485 367.453H94.299C93.882 367.453 93.511 367.311 93.2695 367.091C93.3133 367.593 93.8838 367.99 94.5828 367.99H110.769C111.497 367.99 112.086 367.56 112.086 367.029C112.087 366.803 111.979 366.595 111.799 366.431Z" fill="#EB57CB"/>
<path d="M323.626 372.085H308.802L309.156 371.07L309.347 370.523L309.991 368.678L310.368 367.594L311.012 365.75L311.663 363.884L311.883 363.252L313.687 358.081L314.04 357.07L314.554 355.598C315.103 354.026 317.323 354.026 317.872 355.598L318.385 357.07L318.738 358.081L320.542 363.252L320.762 363.884L321.413 365.75L322.057 367.594L322.435 368.678L323.079 370.523L323.27 371.07L323.626 372.085Z" fill="#FF6EE0"/>
<path d="M321.513 370.522H309.347L309.991 368.678H320.87L321.513 370.522Z" fill="white"/>
<path d="M320.492 367.594H310.369L311.013 365.75H319.848L320.492 367.594Z" fill="white"/>
<path d="M318.976 363.252H311.885L313.689 358.081H317.172L318.976 363.252Z" fill="white"/>
<path d="M322.059 367.594H320.491L319.847 365.75H321.415L322.059 367.594Z" fill="#F0F0F0"/>
<path d="M320.544 363.252H318.976L317.172 358.081H318.74L320.544 363.252Z" fill="#F0F0F0"/>
<path d="M318.387 357.07L318.74 358.081H317.172L316.819 357.07L316.306 355.598C316.138 355.118 315.814 354.786 315.43 354.599C316.304 354.174 317.491 354.506 317.873 355.598L318.387 357.07Z" fill="#EB57CB"/>
<path d="M321.414 365.75H319.847L319.196 363.883L318.976 363.252H320.543L320.763 363.883L321.414 365.75Z" fill="#EB57CB"/>
<path d="M323.081 370.522H321.513L320.87 368.678H322.437L323.081 370.522Z" fill="#F0F0F0"/>
<path d="M322.437 368.678H320.87L320.492 367.594H322.059L322.437 368.678Z" fill="#EB57CB"/>
<path d="M323.626 372.085H322.059L321.514 370.522H323.081L323.626 372.085Z" fill="#EB57CB"/>
<path d="M323.626 372.085H308.802L309.156 371.07H323.272L323.626 372.085Z" fill="#EB57CB"/>
<path d="M324.307 373.527H308.121C307.393 373.527 306.803 373.097 306.803 372.567C306.803 372.037 307.393 371.607 308.121 371.607H324.307C325.034 371.607 325.624 372.037 325.624 372.567C325.624 373.097 325.034 373.527 324.307 373.527Z" fill="#FF6EE0"/>
<path d="M325.337 371.968C325.338 371.989 325.341 372.009 325.341 372.03C325.341 372.56 324.751 372.99 324.023 372.99H307.837C307.42 372.99 307.049 372.849 306.808 372.629C306.851 373.13 307.422 373.527 308.121 373.527H324.307C325.035 373.527 325.625 373.097 325.625 372.567C325.625 372.341 325.517 372.133 325.337 371.968Z" fill="#EB57CB"/>
<path d="M557.459 358.44H542.635L542.989 357.424L543.18 356.877L543.824 355.033L544.201 353.949L544.845 352.105L545.496 350.238L545.716 349.607L547.52 344.436L547.873 343.425L548.387 341.953C548.936 340.381 551.156 340.381 551.705 341.953L552.218 343.425L552.571 344.436L554.375 349.607L554.595 350.238L555.246 352.105L555.89 353.949L556.268 355.033L556.912 356.877L557.103 357.424L557.459 358.44Z" fill="#FF6EE0"/>
<path d="M555.346 356.877H543.18L543.824 355.033H554.703L555.346 356.877Z" fill="white"/>
<path d="M554.325 353.948H544.202L544.846 352.104H553.681L554.325 353.948Z" fill="white"/>
<path d="M552.809 349.606H545.717L547.521 344.436H551.005L552.809 349.606Z" fill="white"/>
<path d="M555.892 353.948H554.324L553.68 352.104H555.247L555.892 353.948Z" fill="#F0F0F0"/>
<path d="M554.376 349.606H552.809L551.005 344.436H552.572L554.376 349.606Z" fill="#F0F0F0"/>
<path d="M552.219 343.424L552.572 344.436H551.005L550.652 343.424L550.139 341.952C549.971 341.472 549.647 341.141 549.263 340.953C550.137 340.528 551.324 340.861 551.706 341.952L552.219 343.424Z" fill="#EB57CB"/>
<path d="M555.247 352.104H553.68L553.029 350.238L552.809 349.607H554.376L554.596 350.238L555.247 352.104Z" fill="#EB57CB"/>
<path d="M556.914 356.877H555.346L554.703 355.033H556.27L556.914 356.877Z" fill="#F0F0F0"/>
<path d="M556.27 355.033H554.703L554.325 353.948H555.892L556.27 355.033Z" fill="#EB57CB"/>
<path d="M557.459 358.44H555.892L555.346 356.877H556.914L557.459 358.44Z" fill="#EB57CB"/>
<path d="M557.459 358.44H542.635L542.989 357.424H557.105L557.459 358.44Z" fill="#EB57CB"/>
<path d="M558.139 359.882H541.953C541.226 359.882 540.636 359.452 540.636 358.922C540.636 358.391 541.226 357.961 541.953 357.961H558.139C558.867 357.961 559.457 358.391 559.457 358.922C559.457 359.452 558.867 359.882 558.139 359.882Z" fill="#FF6EE0"/>
<path d="M559.169 358.323C559.171 358.344 559.174 358.364 559.174 358.385C559.174 358.915 558.584 359.345 557.856 359.345H541.67C541.253 359.345 540.882 359.203 540.641 358.983C540.684 359.484 541.255 359.882 541.954 359.882H558.14C558.868 359.882 559.458 359.451 559.458 358.921C559.457 358.695 559.349 358.487 559.169 358.323Z" fill="#EB57CB"/>
<path d="M594.32 239.665C594.32 239.665 591.989 237.967 593.521 235.469C595.053 232.972 598.449 233.671 599.088 234.981C600.348 234.77 601.331 235.615 601.88 236.402C602.312 237.022 602.829 238.266 602.196 240.697C601.563 243.128 605.037 244.515 605.509 246.158C605.813 247.214 605.343 248.356 603.195 248.605C601.047 248.855 595.303 246.524 595.303 246.524C594.621 246.523 592.08 243.991 594.32 239.665Z" fill="#45359E"/>
<path d="M577.793 296.164C578.794 291.092 579.341 286.945 579.202 283.291C579.103 280.611 578.838 278.151 578.623 275.678L594.163 266.782L599.101 263.954H589.638C589.638 263.954 576.14 268.33 573.851 272.146C572.312 274.713 572.63 280.499 573.353 285.747C574.116 291.249 575.328 296.165 575.328 296.165H577.793V296.164Z" fill="#E3C0C1"/>
<path d="M577.832 296.052L578.629 298.657L578.13 302.706L577.328 302.745L576.597 299.2L575.302 301.554C574.953 302.187 574.43 302.706 573.713 302.799C571.821 303.044 568.124 303.108 567.97 301.866C567.813 300.591 571.397 300.536 572.443 299.133C573.457 297.775 574.675 295.998 574.675 295.998L577.832 296.052Z" fill="#3C2E8F"/>
<path d="M573.352 285.746L576.571 286.276L579.201 283.291L590.819 270.116L594.163 266.781L596.995 263.953H589.638C589.638 263.953 576.14 268.33 573.851 272.145C572.311 274.714 572.63 280.499 573.352 285.746Z" fill="#3C2E8F"/>
<path d="M575.001 296.315C577.829 293.891 579.708 290.818 581.176 287.322C582.127 285.055 582.868 282.622 583.488 280.095C583.488 280.095 597.888 278.879 601.677 273.367C604.258 269.61 602.189 263.954 602.189 263.954C599.729 264.03 596.501 263.492 594.463 264.152C586.783 266.634 578.536 269.906 576.62 275.221C575.489 278.358 574.708 281.828 573.927 285.675C573.28 288.853 572.698 292.546 571.845 296.262L575.001 296.315Z" fill="#F7C1CE"/>
<path d="M573.927 285.674L578.731 286.765L581.177 287.322C582.128 285.055 582.87 282.622 583.489 280.095C583.489 280.095 591.968 279.377 597.624 276.558C599.339 275.701 600.798 274.651 601.678 273.367C604.039 269.929 602.508 264.897 602.23 264.071C602.203 263.995 602.189 263.954 602.189 263.954H602.171C599.711 264.026 596.21 263.258 594.177 263.918C586.496 266.4 578.169 269.798 576.252 275.113C575.117 278.25 574.708 281.827 573.927 285.674Z" fill="#45359E"/>
<path d="M592.859 253.992C591.243 255.946 588.353 258.21 586.698 260.131C585.883 259.423 584.932 259.073 584.25 258.172C587.03 253.956 590.123 249.699 593.675 246.084C593.013 248.835 593.632 251.281 592.859 253.992Z" fill="#024FA0"/>
<path d="M588.956 264.183C592.762 263.676 595.886 265.256 599.765 264.955C600.232 264.918 600.712 264.856 601.201 264.762C602.104 264.582 602.732 263.756 602.638 262.841L601.359 250.362L600.232 246.524L599.972 245.645L597.954 244.563L595.736 244.64C592.427 246.076 590.146 249.963 592.152 254.259C594.1 258.433 588.956 264.183 588.956 264.183Z" fill="#024FA0"/>
<path d="M595.639 244.674C595.639 245.929 596.805 245.929 597.974 244.674L597.7 243.156L597.53 242.212L595.771 243.091L595.642 244.64L595.639 244.674Z" fill="#F7C1CE"/>
<path d="M587.946 259.908C588.956 261.445 589.574 261.168 590.927 261.25C592.69 261.149 594.582 261.42 596.364 261.28C598.515 261.113 601.677 261.807 603.427 260.379C605.177 258.95 602.96 251.9 602.443 250.314C601.756 248.208 600.987 247.29 599.976 245.624C600.43 247.238 600.883 248.779 601.337 250.365C601.052 252.821 600.813 255.289 600.559 257.744C598.821 257.979 597.514 258.134 595.679 258.446C594.058 258.721 591.847 259.099 590.16 259.56C588.672 258.75 586.936 258.373 587.946 259.908Z" fill="#F7C1CE"/>
<path d="M595.619 258.229C595.801 259.21 596.131 260.519 596.385 261.538C598.66 261.644 601.397 262.093 603.518 260.308C605.639 258.523 604.211 251.291 603.354 249.313C602.434 247.19 601.667 246.513 599.969 245.615C596.721 248.882 600.133 253.418 600.55 257.748C598.941 257.952 597.22 257.969 595.619 258.229Z" fill="#024FA0"/>
<path d="M594.282 236.499C594.282 236.499 595.174 238.388 598.167 239.089C598.167 239.089 599.101 238.07 599.505 238.707C599.908 239.344 598.932 240.469 598.932 240.469C598.82 242.319 597.488 243.787 596.108 243.441C592.97 242.652 594.282 236.499 594.282 236.499Z" fill="#F7C1CE"/>
<path d="M575.001 296.315L575.798 298.92L575.299 302.97L574.497 303.009L573.766 299.464L572.471 301.817C572.123 302.451 571.599 302.97 570.882 303.063C568.99 303.308 565.293 303.372 565.14 302.13C564.982 300.854 568.566 300.8 569.613 299.397C570.626 298.039 571.844 296.262 571.844 296.262L575.001 296.315Z" fill="#45359E"/>
<path d="M593.216 265.687L590.59 257.802C590.321 257.319 589.811 257.018 589.257 257.018H577.522C576.418 257.018 575.68 258.154 576.128 259.162L579.18 266.028C579.444 266.622 580.031 267.003 580.68 267.003H592.267C592.95 267.003 593.432 266.335 593.216 265.687Z" fill="#FC91FF"/>
<path d="M584.175 263.649C584.79 263.649 585.289 263.15 585.289 262.535C585.289 261.92 584.79 261.421 584.175 261.421C583.56 261.421 583.061 261.92 583.061 262.535C583.061 263.15 583.56 263.649 584.175 263.649Z" fill="white"/>
</svg>
